<svg xmlns="http://www.w3.org/2000/svg" xmlns:xlink="http://www.w3.org/1999/xlink" contentScriptType="text/ecmascript" width="960" viewBox="0 0 960 311.25" height="311.25" version="1.0"><defs><g id="a"><path d="M 35.164062 3.359375 L 35.164062 -5.523438 L 11.199219 -16.5 L 35.164062 -27.472656 L 35.164062 -36.359375 L 4.480469 -22.023438 L 4.480469 -10.976562 Z M 35.164062 3.359375"/></g><g id="b"><path d="M 32.402344 -50.769531 L 32.402344 -30.535156 L 15.679688 -30.535156 L 15.679688 -50.769531 L 4.480469 -50.769531 L 4.480469 0 L 15.679688 0 L 15.679688 -20.382812 L 32.402344 -20.382812 L 32.402344 0 L 44.347656 0 L 44.347656 -50.769531 Z M 32.402344 -50.769531"/></g><g id="c"><path d="M 14.632812 -20.382812 C 14.632812 -20.382812 15.007812 -26.503906 22.023438 -26.503906 C 28.816406 -26.503906 29.339844 -20.382812 29.339844 -20.382812 Z M 40.089844 -17.171875 C 40.089844 -27.699219 31.804688 -33.671875 21.800781 -33.671875 C 10.75 -33.671875 2.613281 -26.726562 2.613281 -16.425781 C 2.613281 -5.972656 10.453125 0.746094 21.800781 0.746094 C 30.535156 0.746094 37.554688 -3.582031 39.496094 -12.242188 L 28.070312 -12.242188 C 27.996094 -9.855469 25.535156 -7.242188 21.578125 -7.242188 C 17.171875 -7.242188 14.484375 -11.273438 14.484375 -15.082031 L 40.015625 -15.082031 C 40.015625 -15.753906 40.089844 -16.5 40.089844 -17.171875 Z M 40.089844 -17.171875"/></g><g id="d"><path d="M 15.679688 0 L 15.679688 -55.992188 L 4.480469 -55.992188 L 4.480469 0 Z M 15.679688 0"/></g><g id="e"><path d="M 21.425781 -7.765625 C 15.378906 -7.765625 13.738281 -12.167969 13.738281 -16.351562 C 13.738281 -20.457031 15.527344 -24.859375 21.425781 -24.859375 C 27.25 -24.859375 29.042969 -20.457031 29.042969 -16.351562 C 29.042969 -12.167969 27.398438 -7.765625 21.425781 -7.765625 Z M 21.425781 -33.597656 C 11.125 -33.597656 2.613281 -26.726562 2.613281 -16.425781 C 2.613281 -5.898438 10.898438 0.671875 21.425781 0.671875 C 31.878906 0.671875 40.167969 -5.898438 40.167969 -16.425781 C 40.167969 -26.726562 31.65625 -33.597656 21.425781 -33.597656 Z M 21.425781 -33.597656"/></g><g id="f"><path d="M 15.828125 -10.152344 L 4.777344 -10.152344 L 0.222656 10.003906 L 6.347656 10.003906 Z M 15.828125 -10.152344"/></g><g id="h"><path d="M 15.679688 0 L 15.679688 -50.769531 L 4.480469 -50.769531 L 4.480469 0 Z M 15.679688 0"/></g><g id="i"><path d="M 1.492188 -55.992188 L 2.988281 -35.3125 L 8.4375 -35.3125 L 9.929688 -55.992188 Z M 1.492188 -55.992188"/></g><g id="j"><path d="M 37.703125 -16.722656 C 37.703125 -20.457031 39.417969 -24.636719 43.75 -24.636719 C 47.484375 -24.636719 48.527344 -21.425781 48.527344 -18.214844 L 48.527344 0 L 59.726562 0 L 59.726562 -18.214844 C 59.726562 -26.726562 55.621094 -33.671875 47.035156 -33.671875 C 41.882812 -33.671875 38.226562 -32.179688 35.015625 -28.070312 C 32.699219 -31.804688 28.96875 -33.671875 24.785156 -33.671875 C 21.128906 -33.671875 17.917969 -31.730469 15.679688 -28.894531 L 15.679688 -32.925781 L 4.480469 -32.925781 L 4.480469 0 L 15.679688 0 L 15.679688 -16.425781 C 15.679688 -19.710938 17.917969 -24.636719 21.726562 -24.636719 C 25.457031 -24.636719 26.503906 -21.425781 26.503906 -18.214844 L 26.503906 0 L 37.703125 0 Z M 37.703125 -16.722656"/></g><g id="k"><path d="M 15.679688 -18.140625 L 23.515625 -18.140625 C 31.730469 -18.140625 39.046875 -24.1875 39.046875 -34.492188 C 39.046875 -44.125 31.730469 -50.769531 23.515625 -50.769531 L 4.480469 -50.769531 L 4.480469 0 L 15.679688 0 Z M 21.652344 -41.957031 C 24.9375 -41.957031 28.371094 -39.121094 28.371094 -34.492188 C 28.371094 -29.640625 24.9375 -26.953125 21.652344 -26.953125 L 15.679688 -26.953125 L 15.679688 -41.957031 Z M 21.652344 -41.957031"/></g><g id="l"><path d="M 30.238281 -16.425781 C 30.238281 -12.09375 26.878906 -8.210938 22.398438 -8.210938 C 17.917969 -8.210938 14.558594 -12.09375 14.558594 -16.425781 C 14.558594 -20.753906 17.917969 -24.636719 22.398438 -24.636719 C 26.878906 -24.636719 30.238281 -20.753906 30.238281 -16.425781 Z M 41.433594 -32.851562 L 30.238281 -32.851562 L 30.238281 -28.894531 C 27.324219 -32.476562 23.144531 -33.671875 18.964844 -33.671875 C 9.632812 -33.671875 2.613281 -25.535156 2.613281 -16.425781 C 2.613281 -7.316406 9.632812 0.746094 18.964844 0.746094 C 23.144531 0.746094 27.996094 -0.597656 30.238281 -3.957031 L 30.238281 0 L 41.433594 0 Z M 41.433594 -32.851562"/></g><g id="m"><path d="M 3.734375 -14.183594 C 3.734375 -5.300781 7.316406 0.746094 16.125 0.746094 C 20.457031 0.746094 23.964844 -1.195312 26.207031 -4.03125 L 26.207031 0 L 37.402344 0 L 37.402344 -32.925781 L 26.207031 -32.925781 L 26.207031 -16.425781 C 26.207031 -12.019531 23.441406 -8.210938 19.933594 -8.210938 C 16.425781 -8.210938 14.933594 -10.378906 14.933594 -14.183594 L 14.933594 -32.925781 L 3.734375 -32.925781 Z M 3.734375 -14.183594"/></g><g id="n"><path d="M 33.894531 -10.152344 L 15.679688 -10.152344 L 15.679688 -20.382812 L 33.148438 -20.382812 L 33.148438 -30.535156 L 15.679688 -30.535156 L 15.679688 -40.613281 L 33.894531 -40.613281 L 33.894531 -50.769531 L 4.480469 -50.769531 L 4.480469 0 L 33.894531 0 Z M 33.894531 -10.152344"/></g><g id="o"><path d="M 30.238281 -16.425781 C 30.238281 -12.09375 26.878906 -8.210938 22.398438 -8.210938 C 17.917969 -8.210938 14.558594 -12.09375 14.558594 -16.425781 C 14.558594 -20.753906 17.917969 -24.636719 22.398438 -24.636719 C 26.878906 -24.636719 30.238281 -20.753906 30.238281 -16.425781 Z M 41.433594 -55.992188 L 30.238281 -55.992188 L 30.238281 -28.894531 C 27.324219 -32.476562 23.144531 -33.671875 18.964844 -33.671875 C 9.632812 -33.671875 2.613281 -25.535156 2.613281 -16.425781 C 2.613281 -7.316406 9.632812 0.746094 18.964844 0.746094 C 23.144531 0.746094 27.996094 -0.597656 30.238281 -3.957031 L 30.238281 0 L 41.433594 0 Z M 41.433594 -55.992188"/></g><g id="p"><path d="M 23.070312 -24.636719 C 24.785156 -24.636719 26.429688 -24.113281 27.550781 -22.769531 L 27.699219 -22.769531 L 27.699219 -32.925781 C 26.800781 -33.371094 25.308594 -33.671875 24.339844 -33.671875 C 20.234375 -33.671875 17.394531 -31.355469 15.679688 -28.894531 L 15.679688 -32.925781 L 4.480469 -32.925781 L 4.480469 0 L 15.679688 0 L 15.679688 -16.425781 C 15.679688 -20.382812 18.886719 -24.636719 23.070312 -24.636719 Z M 23.070312 -24.636719"/></g><g id="q"><path d="M 0.296875 15.527344 L 10.527344 15.527344 L 39.269531 -55.992188 L 28.96875 -55.992188 Z M 0.296875 15.527344"/></g><g id="r"><path d="M 35.164062 -10.976562 L 35.164062 -22.023438 L 4.480469 -36.359375 L 4.480469 -27.472656 L 28.371094 -16.5 L 4.480469 -5.523438 L 4.480469 3.359375 Z M 35.164062 -10.976562"/></g><g id="s"><path d="M 8.632812 8.710938 C 9.371094 8.710938 10.113281 8.632812 10.851562 8.632812 C 11.199219 8.632812 11.550781 8.632812 11.941406 8.671875 L 11.941406 2.957031 C 11.394531 2.996094 10.851562 3.035156 10.304688 3.035156 C 10.113281 3.035156 9.878906 3.035156 9.683594 2.957031 C 9.21875 2.761719 9.332031 1.4375 9.332031 1.011719 L 9.332031 -6.535156 C 9.332031 -7.933594 8.4375 -9.21875 7.46875 -10.226562 C 8.75 -11.589844 9.332031 -13.183594 9.332031 -14.933594 L 9.332031 -21.664062 C 9.332031 -23.800781 9.957031 -23.566406 11.941406 -23.566406 L 11.941406 -29.128906 C 10.851562 -29.167969 9.761719 -29.246094 8.671875 -29.246094 C 4.707031 -29.246094 3.773438 -26.019531 3.773438 -22.671875 L 3.773438 -15.207031 C 3.773438 -13.652344 3.304688 -13.300781 1.789062 -12.910156 L 1.789062 -7.894531 C 2.566406 -7.699219 3.773438 -7.3125 3.773438 -6.339844 L 3.773438 1.90625 C 3.773438 5.210938 4.667969 8.710938 8.632812 8.710938 Z M 8.632812 8.710938"/></g><g id="t"><path d="M 15.089844 -7.738281 C 15.089844 -5.988281 13.613281 -4.550781 11.863281 -4.550781 L 8.167969 -4.550781 L 8.167969 -10.929688 L 11.863281 -10.929688 C 13.613281 -10.929688 15.089844 -9.449219 15.089844 -7.738281 Z M 13.261719 -18.785156 C 13.261719 -17.113281 11.863281 -15.710938 10.191406 -15.710938 L 8.167969 -15.710938 L 8.167969 -21.855469 L 10.191406 -21.855469 C 11.863281 -21.855469 13.261719 -20.496094 13.261719 -18.785156 Z M 21.039062 -7.582031 C 21.039062 -11.160156 18.628906 -13.535156 15.671875 -14.234375 C 17.65625 -15.128906 18.824219 -17.152344 18.824219 -19.835938 C 18.824219 -23.453125 15.945312 -26.445312 11.433594 -26.445312 L 2.332031 -26.445312 L 2.332031 0 L 13.027344 0 C 18.085938 0 21.039062 -3.035156 21.039062 -7.582031 Z M 21.039062 -7.582031"/></g><g id="u"><path d="M 15.75 -8.554688 C 15.75 -6.300781 14 -4.277344 11.667969 -4.277344 C 9.332031 -4.277344 7.582031 -6.300781 7.582031 -8.554688 C 7.582031 -10.8125 9.332031 -12.835938 11.667969 -12.835938 C 14 -12.835938 15.75 -10.8125 15.75 -8.554688 Z M 21.585938 -17.113281 L 15.75 -17.113281 L 15.75 -15.050781 C 14.234375 -16.917969 12.054688 -17.539062 9.878906 -17.539062 C 5.015625 -17.539062 1.359375 -13.300781 1.359375 -8.554688 C 1.359375 -3.8125 5.015625 0.390625 9.878906 0.390625 C 12.054688 0.390625 14.585938 -0.3125 15.75 -2.0625 L 15.75 0 L 21.585938 0 Z M 21.585938 -17.113281"/></g><g id="v"><path d="M 11.085938 -12.988281 C 13.105469 -12.988281 14.390625 -11.941406 14.46875 -10.265625 L 20.261719 -10.265625 C 19.988281 -14.234375 16.449219 -17.539062 10.890625 -17.539062 C 5.171875 -17.539062 1.359375 -13.457031 1.359375 -8.554688 C 1.359375 -3.65625 4.9375 0.390625 10.890625 0.390625 C 16.101562 0.390625 19.5625 -2.566406 20.144531 -6.378906 L 14.46875 -6.378906 C 14.273438 -4.824219 12.871094 -4.042969 11.085938 -4.042969 C 8.363281 -4.042969 7.582031 -6.535156 7.582031 -8.515625 C 7.582031 -10.460938 8.4375 -12.988281 11.085938 -12.988281 Z M 11.085938 -12.988281"/></g><g id="w"><path d="M 8.167969 -7.582031 L 14.195312 0 L 21.664062 0 L 13.496094 -8.984375 L 20.882812 -17.152344 L 13.652344 -17.152344 L 8.167969 -10.34375 L 8.167969 -29.167969 L 2.332031 -29.167969 L 2.332031 0 L 8.167969 0 Z M 8.167969 -7.582031"/></g><g id="x"><path d="M 12.640625 -7 L 12.640625 -10.226562 L 0.582031 -10.226562 L 0.582031 -7 Z M 12.640625 -7"/></g><g id="y"><path d="M 17.65625 -5.289062 L 8.167969 -5.289062 L 8.167969 -10.617188 L 17.269531 -10.617188 L 17.269531 -15.90625 L 8.167969 -15.90625 L 8.167969 -21.15625 L 17.65625 -21.15625 L 17.65625 -26.445312 L 2.332031 -26.445312 L 2.332031 0 L 17.65625 0 Z M 17.65625 -5.289062"/></g><g id="z"><path d="M 19.875 -9.722656 C 19.875 -14.390625 18.007812 -17.539062 13.417969 -17.539062 C 11.160156 -17.539062 9.332031 -16.527344 8.167969 -15.050781 L 8.167969 -17.152344 L 2.332031 -17.152344 L 2.332031 0 L 8.167969 0 L 8.167969 -8.554688 C 8.167969 -10.890625 9.605469 -12.835938 11.433594 -12.835938 C 13.261719 -12.835938 14.039062 -11.746094 14.039062 -9.722656 L 14.039062 0 L 19.875 0 Z M 19.875 -9.722656"/></g><g id="A"><path d="M 15.75 -8.554688 C 15.75 -6.300781 14 -4.277344 11.667969 -4.277344 C 9.332031 -4.277344 7.582031 -6.300781 7.582031 -8.554688 C 7.582031 -10.8125 9.332031 -12.835938 11.667969 -12.835938 C 14 -12.835938 15.75 -10.8125 15.75 -8.554688 Z M 21.585938 -29.167969 L 15.75 -29.167969 L 15.75 -15.050781 C 14.234375 -16.917969 12.054688 -17.539062 9.878906 -17.539062 C 5.015625 -17.539062 1.359375 -13.300781 1.359375 -8.554688 C 1.359375 -3.8125 5.015625 0.390625 9.878906 0.390625 C 12.054688 0.390625 14.585938 -0.3125 15.75 -2.0625 L 15.75 0 L 21.585938 0 Z M 21.585938 -29.167969"/></g><g id="C"><path d="M 8.089844 -5.367188 L 8.089844 -21.039062 L 9.839844 -21.039062 C 14.351562 -21.039062 17.382812 -17.617188 17.382812 -13.222656 C 17.382812 -8.828125 14.3125 -5.367188 9.839844 -5.367188 Z M 2.332031 -26.445312 L 2.332031 0 L 10.191406 0 C 17.695312 0 23.335938 -5.757812 23.335938 -13.222656 C 23.335938 -20.691406 17.65625 -26.445312 10.191406 -26.445312 Z M 2.332031 -26.445312"/></g><g id="D"><path d="M 7.621094 -10.617188 C 7.621094 -10.617188 7.816406 -13.804688 11.472656 -13.804688 C 15.011719 -13.804688 15.285156 -10.617188 15.285156 -10.617188 Z M 20.882812 -8.945312 C 20.882812 -14.429688 16.566406 -17.539062 11.355469 -17.539062 C 5.601562 -17.539062 1.359375 -13.921875 1.359375 -8.554688 C 1.359375 -3.109375 5.445312 0.390625 11.355469 0.390625 C 15.90625 0.390625 19.5625 -1.867188 20.574219 -6.378906 L 14.625 -6.378906 C 14.585938 -5.132812 13.300781 -3.773438 11.238281 -3.773438 C 8.945312 -3.773438 7.542969 -5.871094 7.542969 -7.855469 L 20.847656 -7.855469 C 20.847656 -8.207031 20.882812 -8.59375 20.882812 -8.945312 Z M 20.882812 -8.945312"/></g><g id="E"><path d="M 19.5625 -17.152344 L 13.652344 -17.152344 L 9.566406 -4.898438 L 5.484375 -17.152344 L -0.390625 -17.152344 L 6.144531 0 L 13.027344 0 Z M 19.5625 -17.152344"/></g><g id="F"><path d="M 8.167969 0 L 8.167969 -29.167969 L 2.332031 -29.167969 L 2.332031 0 Z M 8.167969 0"/></g><g id="G"><path d="M 11.160156 -4.042969 C 8.011719 -4.042969 7.15625 -6.339844 7.15625 -8.515625 C 7.15625 -10.65625 8.089844 -12.949219 11.160156 -12.949219 C 14.195312 -12.949219 15.128906 -10.65625 15.128906 -8.515625 C 15.128906 -6.339844 14.273438 -4.042969 11.160156 -4.042969 Z M 11.160156 -17.5 C 5.792969 -17.5 1.359375 -13.921875 1.359375 -8.554688 C 1.359375 -3.074219 5.679688 0.351562 11.160156 0.351562 C 16.605469 0.351562 20.921875 -3.074219 20.921875 -8.554688 C 20.921875 -13.921875 16.488281 -17.5 11.160156 -17.5 Z M 11.160156 -17.5"/></g><g id="H"><path d="M 8.167969 -8.554688 C 8.167969 -10.8125 9.917969 -12.835938 12.25 -12.835938 C 14.585938 -12.835938 16.335938 -10.8125 16.335938 -8.554688 C 16.335938 -6.300781 14.585938 -4.277344 12.25 -4.277344 C 9.917969 -4.277344 8.167969 -6.300781 8.167969 -8.554688 Z M 8.167969 9.722656 L 8.167969 -2.0625 C 9.332031 -0.3125 11.824219 0.390625 14.039062 0.390625 C 18.902344 0.390625 22.558594 -3.8125 22.558594 -8.554688 C 22.558594 -13.300781 18.902344 -17.539062 14.039062 -17.539062 C 11.824219 -17.539062 9.683594 -16.917969 8.167969 -15.050781 L 8.167969 -17.152344 L 2.332031 -17.152344 L 2.332031 9.722656 Z M 8.167969 9.722656"/></g><g id="I"><path d="M 12.015625 -12.835938 C 12.910156 -12.835938 13.765625 -12.5625 14.351562 -11.863281 L 14.429688 -11.863281 L 14.429688 -17.152344 C 13.960938 -17.382812 13.183594 -17.539062 12.679688 -17.539062 C 10.539062 -17.539062 9.0625 -16.335938 8.167969 -15.050781 L 8.167969 -17.152344 L 2.332031 -17.152344 L 2.332031 0 L 8.167969 0 L 8.167969 -8.554688 C 8.167969 -10.617188 9.839844 -12.835938 12.015625 -12.835938 Z M 12.015625 -12.835938"/></g><g id="J"><path d="M 5.09375 8.710938 C 9.0625 8.710938 9.957031 5.210938 9.957031 1.90625 L 9.957031 -6.339844 C 9.957031 -7.3125 11.160156 -7.699219 11.941406 -7.894531 L 11.941406 -12.910156 C 10.421875 -13.300781 9.957031 -13.652344 9.957031 -15.207031 L 9.957031 -22.671875 C 9.957031 -26.019531 9.023438 -29.246094 5.054688 -29.246094 C 3.96875 -29.246094 2.878906 -29.167969 1.789062 -29.128906 L 1.789062 -23.566406 C 3.773438 -23.566406 4.433594 -23.800781 4.433594 -21.664062 L 4.433594 -14.933594 C 4.433594 -13.183594 5.757812 -11.550781 7.039062 -10.226562 C 6.066406 -9.21875 4.433594 -7.933594 4.433594 -6.535156 L 4.433594 1.011719 C 4.433594 1.4375 4.511719 2.761719 4.042969 2.957031 C 3.851562 3.035156 3.617188 3.035156 3.421875 3.035156 C 2.878906 3.035156 2.332031 2.996094 1.789062 2.957031 L 1.789062 8.671875 C 2.917969 8.632812 4.003906 8.710938 5.09375 8.710938 Z M 5.09375 8.710938"/></g></defs><g fill="#FFDE59"><use x="9.188" y="153.881" xmlns:xlink="http://www.w3.org/1999/xlink" xlink:href="#a" xlink:type="simple" xlink:actuate="onLoad" xlink:show="embed"/></g><g fill="#FF66C4"><use x="48.825" y="153.881" xmlns:xlink="http://www.w3.org/1999/xlink" xlink:href="#b" xlink:type="simple" xlink:actuate="onLoad" xlink:show="embed"/></g><g fill="#FF66C4"><use x="97.647" y="153.881" xmlns:xlink="http://www.w3.org/1999/xlink" xlink:href="#c" xlink:type="simple" xlink:actuate="onLoad" xlink:show="embed"/></g><g fill="#FF66C4"><use x="140.348" y="153.881" xmlns:xlink="http://www.w3.org/1999/xlink" xlink:href="#d" xlink:type="simple" xlink:actuate="onLoad" xlink:show="embed"/></g><g fill="#FF66C4"><use x="160.503" y="153.881" xmlns:xlink="http://www.w3.org/1999/xlink" xlink:href="#d" xlink:type="simple" xlink:actuate="onLoad" xlink:show="embed"/></g><g fill="#FF66C4"><use x="180.659" y="153.881" xmlns:xlink="http://www.w3.org/1999/xlink" xlink:href="#e" xlink:type="simple" xlink:actuate="onLoad" xlink:show="embed"/></g><g><use x="223.421" y="153.881" xmlns:xlink="http://www.w3.org/1999/xlink" xlink:href="#f" xlink:type="simple" xlink:actuate="onLoad" xlink:show="embed"/></g><g><use x="241.785" y="153.881" xmlns:xlink="http://www.w3.org/1999/xlink" xlink:href="#g" xlink:type="simple" xlink:actuate="onLoad" xlink:show="embed"/></g><g><use x="260.448" y="153.881" xmlns:xlink="http://www.w3.org/1999/xlink" xlink:href="#h" xlink:type="simple" xlink:actuate="onLoad" xlink:show="embed"/></g><g><use x="280.604" y="153.881" xmlns:xlink="http://www.w3.org/1999/xlink" xlink:href="#i" xlink:type="simple" xlink:actuate="onLoad" xlink:show="embed"/></g><g><use x="292.026" y="153.881" xmlns:xlink="http://www.w3.org/1999/xlink" xlink:href="#j" xlink:type="simple" xlink:actuate="onLoad" xlink:show="embed"/></g><g><use x="355.106" y="153.881" xmlns:xlink="http://www.w3.org/1999/xlink" xlink:href="#g" xlink:type="simple" xlink:actuate="onLoad" xlink:show="embed"/></g><g fill="#7ED957"><use x="373.764" y="153.881" xmlns:xlink="http://www.w3.org/1999/xlink" xlink:href="#k" xlink:type="simple" xlink:actuate="onLoad" xlink:show="embed"/></g><g fill="#7ED957"><use x="413.927" y="153.881" xmlns:xlink="http://www.w3.org/1999/xlink" xlink:href="#l" xlink:type="simple" xlink:actuate="onLoad" xlink:show="embed"/></g><g fill="#7ED957"><use x="459.837" y="153.881" xmlns:xlink="http://www.w3.org/1999/xlink" xlink:href="#m" xlink:type="simple" xlink:actuate="onLoad" xlink:show="embed"/></g><g fill="#7ED957"><use x="501.716" y="153.881" xmlns:xlink="http://www.w3.org/1999/xlink" xlink:href="#d" xlink:type="simple" xlink:actuate="onLoad" xlink:show="embed"/></g><g fill="#7ED957"><use x="521.872" y="153.881" xmlns:xlink="http://www.w3.org/1999/xlink" xlink:href="#e" xlink:type="simple" xlink:actuate="onLoad" xlink:show="embed"/></g><g fill="#7ED957"><use x="564.647" y="153.881" xmlns:xlink="http://www.w3.org/1999/xlink" xlink:href="#g" xlink:type="simple" xlink:actuate="onLoad" xlink:show="embed"/></g><g fill="#7ED957"><use x="583.31" y="153.881" xmlns:xlink="http://www.w3.org/1999/xlink" xlink:href="#n" xlink:type="simple" xlink:actuate="onLoad" xlink:show="embed"/></g><g fill="#7ED957"><use x="621.681" y="153.881" xmlns:xlink="http://www.w3.org/1999/xlink" xlink:href="#o" xlink:type="simple" xlink:actuate="onLoad" xlink:show="embed"/></g><g fill="#7ED957"><use x="667.591" y="153.881" xmlns:xlink="http://www.w3.org/1999/xlink" xlink:href="#m" xlink:type="simple" xlink:actuate="onLoad" xlink:show="embed"/></g><g fill="#7ED957"><use x="709.47" y="153.881" xmlns:xlink="http://www.w3.org/1999/xlink" xlink:href="#l" xlink:type="simple" xlink:actuate="onLoad" xlink:show="embed"/></g><g fill="#7ED957"><use x="755.381" y="153.881" xmlns:xlink="http://www.w3.org/1999/xlink" xlink:href="#p" xlink:type="simple" xlink:actuate="onLoad" xlink:show="embed"/></g><g fill="#7ED957"><use x="783.823" y="153.881" xmlns:xlink="http://www.w3.org/1999/xlink" xlink:href="#o" xlink:type="simple" xlink:actuate="onLoad" xlink:show="embed"/></g><g fill="#7ED957"><use x="829.733" y="153.881" xmlns:xlink="http://www.w3.org/1999/xlink" xlink:href="#e" xlink:type="simple" xlink:actuate="onLoad" xlink:show="embed"/></g><g fill="#FF914D"><use x="872.502" y="153.881" xmlns:xlink="http://www.w3.org/1999/xlink" xlink:href="#q" xlink:type="simple" xlink:actuate="onLoad" xlink:show="embed"/></g><g fill="#FFDE59"><use x="911.165" y="153.881" xmlns:xlink="http://www.w3.org/1999/xlink" xlink:href="#r" xlink:type="simple" xlink:actuate="onLoad" xlink:show="embed"/></g><g fill="#FFDE59"><use x="564.736" y="216.865" xmlns:xlink="http://www.w3.org/1999/xlink" xlink:href="#s" xlink:type="simple" xlink:actuate="onLoad" xlink:show="embed"/></g><g fill="#8C52FF"><use x="579.115" y="216.865" xmlns:xlink="http://www.w3.org/1999/xlink" xlink:href="#t" xlink:type="simple" xlink:actuate="onLoad" xlink:show="embed"/></g><g fill="#8C52FF"><use x="600.54" y="216.865" xmlns:xlink="http://www.w3.org/1999/xlink" xlink:href="#u" xlink:type="simple" xlink:actuate="onLoad" xlink:show="embed"/></g><g fill="#8C52FF"><use x="624.453" y="216.865" xmlns:xlink="http://www.w3.org/1999/xlink" xlink:href="#v" xlink:type="simple" xlink:actuate="onLoad" xlink:show="embed"/></g><g fill="#8C52FF"><use x="645.916" y="216.865" xmlns:xlink="http://www.w3.org/1999/xlink" xlink:href="#w" xlink:type="simple" xlink:actuate="onLoad" xlink:show="embed"/></g><g fill="#8C52FF"><use x="666.407" y="216.865" xmlns:xlink="http://www.w3.org/1999/xlink" xlink:href="#x" xlink:type="simple" xlink:actuate="onLoad" xlink:show="embed"/></g><g fill="#8C52FF"><use x="679.628" y="216.865" xmlns:xlink="http://www.w3.org/1999/xlink" xlink:href="#y" xlink:type="simple" xlink:actuate="onLoad" xlink:show="embed"/></g><g fill="#8C52FF"><use x="699.613" y="216.865" xmlns:xlink="http://www.w3.org/1999/xlink" xlink:href="#z" xlink:type="simple" xlink:actuate="onLoad" xlink:show="embed"/></g><g fill="#8C52FF"><use x="721.232" y="216.865" xmlns:xlink="http://www.w3.org/1999/xlink" xlink:href="#A" xlink:type="simple" xlink:actuate="onLoad" xlink:show="embed"/></g><g fill="#38B6FF"><use x="745.145" y="216.865" xmlns:xlink="http://www.w3.org/1999/xlink" xlink:href="#B" xlink:type="simple" xlink:actuate="onLoad" xlink:show="embed"/></g><g fill="#38B6FF"><use x="754.866" y="216.865" xmlns:xlink="http://www.w3.org/1999/xlink" xlink:href="#C" xlink:type="simple" xlink:actuate="onLoad" xlink:show="embed"/></g><g fill="#38B6FF"><use x="779.556" y="216.865" xmlns:xlink="http://www.w3.org/1999/xlink" xlink:href="#D" xlink:type="simple" xlink:actuate="onLoad" xlink:show="embed"/></g><g fill="#38B6FF"><use x="801.797" y="216.865" xmlns:xlink="http://www.w3.org/1999/xlink" xlink:href="#E" xlink:type="simple" xlink:actuate="onLoad" xlink:show="embed"/></g><g fill="#38B6FF"><use x="820.967" y="216.865" xmlns:xlink="http://www.w3.org/1999/xlink" xlink:href="#D" xlink:type="simple" xlink:actuate="onLoad" xlink:show="embed"/></g><g fill="#38B6FF"><use x="843.208" y="216.865" xmlns:xlink="http://www.w3.org/1999/xlink" xlink:href="#F" xlink:type="simple" xlink:actuate="onLoad" xlink:show="embed"/></g><g fill="#38B6FF"><use x="853.706" y="216.865" xmlns:xlink="http://www.w3.org/1999/xlink" xlink:href="#G" xlink:type="simple" xlink:actuate="onLoad" xlink:show="embed"/></g><g fill="#38B6FF"><use x="875.986" y="216.865" xmlns:xlink="http://www.w3.org/1999/xlink" xlink:href="#H" xlink:type="simple" xlink:actuate="onLoad" xlink:show="embed"/></g><g fill="#38B6FF"><use x="899.899" y="216.865" xmlns:xlink="http://www.w3.org/1999/xlink" xlink:href="#D" xlink:type="simple" xlink:actuate="onLoad" xlink:show="embed"/></g><g fill="#38B6FF"><use x="922.14" y="216.865" xmlns:xlink="http://www.w3.org/1999/xlink" xlink:href="#I" xlink:type="simple" xlink:actuate="onLoad" xlink:show="embed"/></g><g fill="#FFDE59"><use x="936.952" y="216.865" xmlns:xlink="http://www.w3.org/1999/xlink" xlink:href="#J" xlink:type="simple" xlink:actuate="onLoad" xlink:show="embed"/></g></svg>