<svg xmlns="http://www.w3.org/2000/svg" xmlns:xlink="http://www.w3.org/1999/xlink" contentScriptType="text/ecmascript" width="960" viewBox="0 0 960 311.25" height="311.25" version="1.0"><defs><g id="a"><path d="M 36.433594 3.480469 L 36.433594 -5.722656 L 11.601562 -17.09375 L 36.433594 -28.464844 L 36.433594 -37.671875 L 4.640625 -22.820312 L 4.640625 -11.371094 Z M 36.433594 3.480469"/></g><g id="b"><path d="M 33.570312 -52.597656 L 33.570312 -31.636719 L 16.242188 -31.636719 L 16.242188 -52.597656 L 4.640625 -52.597656 L 4.640625 0 L 16.242188 0 L 16.242188 -21.117188 L 33.570312 -21.117188 L 33.570312 0 L 45.945312 0 L 45.945312 -52.597656 Z M 33.570312 -52.597656"/></g><g id="c"><path d="M 15.160156 -21.117188 C 15.160156 -21.117188 15.546875 -27.460938 22.820312 -27.460938 C 29.859375 -27.460938 30.398438 -21.117188 30.398438 -21.117188 Z M 41.539062 -17.789062 C 41.539062 -28.699219 32.953125 -34.886719 22.585938 -34.886719 C 11.136719 -34.886719 2.707031 -27.691406 2.707031 -17.015625 C 2.707031 -6.1875 10.828125 0.773438 22.585938 0.773438 C 31.636719 0.773438 38.90625 -3.710938 40.917969 -12.6875 L 29.085938 -12.6875 C 29.007812 -10.210938 26.453125 -7.503906 22.355469 -7.503906 C 17.789062 -7.503906 15.007812 -11.679688 15.007812 -15.625 L 41.460938 -15.625 C 41.460938 -16.320312 41.539062 -17.09375 41.539062 -17.789062 Z M 41.539062 -17.789062"/></g><g id="d"><path d="M 16.242188 0 L 16.242188 -58.011719 L 4.640625 -58.011719 L 4.640625 0 Z M 16.242188 0"/></g><g id="e"><path d="M 22.199219 -8.042969 C 15.933594 -8.042969 14.234375 -12.609375 14.234375 -16.941406 C 14.234375 -21.195312 16.089844 -25.757812 22.199219 -25.757812 C 28.234375 -25.757812 30.089844 -21.195312 30.089844 -16.941406 C 30.089844 -12.609375 28.386719 -8.042969 22.199219 -8.042969 Z M 22.199219 -34.808594 C 11.523438 -34.808594 2.707031 -27.691406 2.707031 -17.015625 C 2.707031 -6.109375 11.292969 0.695312 22.199219 0.695312 C 33.027344 0.695312 41.613281 -6.109375 41.613281 -17.015625 C 41.613281 -27.691406 32.796875 -34.808594 22.199219 -34.808594 Z M 22.199219 -34.808594"/></g><g id="f"><path d="M 16.398438 -10.519531 L 4.949219 -10.519531 L 0.230469 10.363281 L 6.574219 10.363281 Z M 16.398438 -10.519531"/></g><g id="h"><path d="M 16.242188 0 L 16.242188 -52.597656 L 4.640625 -52.597656 L 4.640625 0 Z M 16.242188 0"/></g><g id="i"><path d="M 1.546875 -58.011719 L 3.09375 -36.585938 L 8.742188 -36.585938 L 10.289062 -58.011719 Z M 1.546875 -58.011719"/></g><g id="j"><path d="M 39.0625 -17.328125 C 39.0625 -21.195312 40.839844 -25.527344 45.328125 -25.527344 C 49.195312 -25.527344 50.277344 -22.199219 50.277344 -18.875 L 50.277344 0 L 61.882812 0 L 61.882812 -18.875 C 61.882812 -27.691406 57.625 -34.886719 48.730469 -34.886719 C 43.394531 -34.886719 39.605469 -33.339844 36.277344 -29.085938 C 33.878906 -32.953125 30.011719 -34.886719 25.679688 -34.886719 C 21.890625 -34.886719 18.5625 -32.875 16.242188 -29.933594 L 16.242188 -34.113281 L 4.640625 -34.113281 L 4.640625 0 L 16.242188 0 L 16.242188 -17.015625 C 16.242188 -20.421875 18.5625 -25.527344 22.507812 -25.527344 C 26.375 -25.527344 27.460938 -22.199219 27.460938 -18.875 L 27.460938 0 L 39.0625 0 Z M 39.0625 -17.328125"/></g><g id="k"><path d="M 16.242188 -18.796875 L 24.367188 -18.796875 C 32.875 -18.796875 40.453125 -25.0625 40.453125 -35.734375 C 40.453125 -45.714844 32.875 -52.597656 24.367188 -52.597656 L 4.640625 -52.597656 L 4.640625 0 L 16.242188 0 Z M 22.433594 -43.472656 C 25.835938 -43.472656 29.394531 -40.53125 29.394531 -35.734375 C 29.394531 -30.707031 25.835938 -27.921875 22.433594 -27.921875 L 16.242188 -27.921875 L 16.242188 -43.472656 Z M 22.433594 -43.472656"/></g><g id="l"><path d="M 31.328125 -17.015625 C 31.328125 -12.53125 27.847656 -8.507812 23.207031 -8.507812 C 18.5625 -8.507812 15.082031 -12.53125 15.082031 -17.015625 C 15.082031 -21.503906 18.5625 -25.527344 23.207031 -25.527344 C 27.847656 -25.527344 31.328125 -21.503906 31.328125 -17.015625 Z M 42.929688 -34.035156 L 31.328125 -34.035156 L 31.328125 -29.933594 C 28.308594 -33.648438 23.980469 -34.886719 19.648438 -34.886719 C 9.976562 -34.886719 2.707031 -26.453125 2.707031 -17.015625 C 2.707031 -7.582031 9.976562 0.773438 19.648438 0.773438 C 23.980469 0.773438 29.007812 -0.617188 31.328125 -4.101562 L 31.328125 0 L 42.929688 0 Z M 42.929688 -34.035156"/></g><g id="m"><path d="M 3.867188 -14.695312 C 3.867188 -5.492188 7.582031 0.773438 16.707031 0.773438 C 21.195312 0.773438 24.828125 -1.238281 27.148438 -4.175781 L 27.148438 0 L 38.753906 0 L 38.753906 -34.113281 L 27.148438 -34.113281 L 27.148438 -17.015625 C 27.148438 -12.453125 24.289062 -8.507812 20.652344 -8.507812 C 17.015625 -8.507812 15.46875 -10.75 15.46875 -14.695312 L 15.46875 -34.113281 L 3.867188 -34.113281 Z M 3.867188 -14.695312"/></g><g id="n"><path d="M 4.023438 -45.792969 C 4.023438 -42.078125 7.039062 -38.984375 10.828125 -38.984375 C 14.542969 -38.984375 17.636719 -42.078125 17.636719 -45.792969 C 17.636719 -49.582031 14.542969 -52.597656 10.828125 -52.597656 C 7.039062 -52.597656 4.023438 -49.582031 4.023438 -45.792969 Z M 16.628906 0 L 16.628906 -34.113281 L 5.027344 -34.113281 L 5.027344 0 Z M 16.628906 0"/></g><g id="o"><path d="M -0.464844 -34.035156 L 12.300781 -17.171875 L -1.546875 0 L 12.609375 0 L 19.722656 -10.519531 L 26.839844 0 L 40.996094 0 L 27.148438 -17.171875 L 39.914062 -34.035156 L 26.453125 -34.035156 L 19.722656 -23.59375 L 12.996094 -34.035156 Z M -0.464844 -34.035156"/></g><g id="p"><path d="M 19.261719 -25.140625 L 25.449219 -25.140625 L 25.449219 -34.113281 L 19.261719 -34.113281 L 19.261719 -47.105469 L 7.734375 -47.105469 L 7.734375 -34.113281 L 1.546875 -34.113281 L 1.546875 -25.140625 L 7.734375 -25.140625 L 7.734375 0 L 19.261719 0 Z M 19.261719 -25.140625"/></g><g id="q"><path d="M 0.308594 16.089844 L 10.90625 16.089844 L 40.6875 -58.011719 L 30.011719 -58.011719 Z M 0.308594 16.089844"/></g><g id="r"><path d="M 36.433594 -11.371094 L 36.433594 -22.820312 L 4.640625 -37.671875 L 4.640625 -28.464844 L 29.394531 -17.09375 L 4.640625 -5.722656 L 4.640625 3.480469 Z M 36.433594 -11.371094"/></g><g id="s"><path d="M 8.632812 8.710938 C 9.371094 8.710938 10.113281 8.632812 10.851562 8.632812 C 11.199219 8.632812 11.550781 8.632812 11.941406 8.671875 L 11.941406 2.957031 C 11.394531 2.996094 10.851562 3.035156 10.304688 3.035156 C 10.113281 3.035156 9.878906 3.035156 9.683594 2.957031 C 9.21875 2.761719 9.332031 1.4375 9.332031 1.011719 L 9.332031 -6.535156 C 9.332031 -7.933594 8.4375 -9.21875 7.46875 -10.226562 C 8.75 -11.589844 9.332031 -13.183594 9.332031 -14.933594 L 9.332031 -21.664062 C 9.332031 -23.800781 9.957031 -23.566406 11.941406 -23.566406 L 11.941406 -29.128906 C 10.851562 -29.167969 9.761719 -29.246094 8.671875 -29.246094 C 4.707031 -29.246094 3.773438 -26.019531 3.773438 -22.671875 L 3.773438 -15.207031 C 3.773438 -13.652344 3.304688 -13.300781 1.789062 -12.910156 L 1.789062 -7.894531 C 2.566406 -7.699219 3.773438 -7.3125 3.773438 -6.339844 L 3.773438 1.90625 C 3.773438 5.210938 4.667969 8.710938 8.632812 8.710938 Z M 8.632812 8.710938"/></g><g id="t"><path d="M 15.089844 -7.738281 C 15.089844 -5.988281 13.613281 -4.550781 11.863281 -4.550781 L 8.167969 -4.550781 L 8.167969 -10.929688 L 11.863281 -10.929688 C 13.613281 -10.929688 15.089844 -9.449219 15.089844 -7.738281 Z M 13.261719 -18.785156 C 13.261719 -17.113281 11.863281 -15.710938 10.191406 -15.710938 L 8.167969 -15.710938 L 8.167969 -21.855469 L 10.191406 -21.855469 C 11.863281 -21.855469 13.261719 -20.496094 13.261719 -18.785156 Z M 21.039062 -7.582031 C 21.039062 -11.160156 18.628906 -13.535156 15.671875 -14.234375 C 17.65625 -15.128906 18.824219 -17.152344 18.824219 -19.835938 C 18.824219 -23.453125 15.945312 -26.445312 11.433594 -26.445312 L 2.332031 -26.445312 L 2.332031 0 L 13.027344 0 C 18.085938 0 21.039062 -3.035156 21.039062 -7.582031 Z M 21.039062 -7.582031"/></g><g id="u"><path d="M 15.75 -8.554688 C 15.75 -6.300781 14 -4.277344 11.667969 -4.277344 C 9.332031 -4.277344 7.582031 -6.300781 7.582031 -8.554688 C 7.582031 -10.8125 9.332031 -12.835938 11.667969 -12.835938 C 14 -12.835938 15.75 -10.8125 15.75 -8.554688 Z M 21.585938 -17.113281 L 15.75 -17.113281 L 15.75 -15.050781 C 14.234375 -16.917969 12.054688 -17.539062 9.878906 -17.539062 C 5.015625 -17.539062 1.359375 -13.300781 1.359375 -8.554688 C 1.359375 -3.8125 5.015625 0.390625 9.878906 0.390625 C 12.054688 0.390625 14.585938 -0.3125 15.75 -2.0625 L 15.75 0 L 21.585938 0 Z M 21.585938 -17.113281"/></g><g id="v"><path d="M 11.085938 -12.988281 C 13.105469 -12.988281 14.390625 -11.941406 14.46875 -10.265625 L 20.261719 -10.265625 C 19.988281 -14.234375 16.449219 -17.539062 10.890625 -17.539062 C 5.171875 -17.539062 1.359375 -13.457031 1.359375 -8.554688 C 1.359375 -3.65625 4.9375 0.390625 10.890625 0.390625 C 16.101562 0.390625 19.5625 -2.566406 20.144531 -6.378906 L 14.46875 -6.378906 C 14.273438 -4.824219 12.871094 -4.042969 11.085938 -4.042969 C 8.363281 -4.042969 7.582031 -6.535156 7.582031 -8.515625 C 7.582031 -10.460938 8.4375 -12.988281 11.085938 -12.988281 Z M 11.085938 -12.988281"/></g><g id="w"><path d="M 8.167969 -7.582031 L 14.195312 0 L 21.664062 0 L 13.496094 -8.984375 L 20.882812 -17.152344 L 13.652344 -17.152344 L 8.167969 -10.34375 L 8.167969 -29.167969 L 2.332031 -29.167969 L 2.332031 0 L 8.167969 0 Z M 8.167969 -7.582031"/></g><g id="x"><path d="M 12.640625 -7 L 12.640625 -10.226562 L 0.582031 -10.226562 L 0.582031 -7 Z M 12.640625 -7"/></g><g id="y"><path d="M 17.65625 -5.289062 L 8.167969 -5.289062 L 8.167969 -10.617188 L 17.269531 -10.617188 L 17.269531 -15.90625 L 8.167969 -15.90625 L 8.167969 -21.15625 L 17.65625 -21.15625 L 17.65625 -26.445312 L 2.332031 -26.445312 L 2.332031 0 L 17.65625 0 Z M 17.65625 -5.289062"/></g><g id="z"><path d="M 19.875 -9.722656 C 19.875 -14.390625 18.007812 -17.539062 13.417969 -17.539062 C 11.160156 -17.539062 9.332031 -16.527344 8.167969 -15.050781 L 8.167969 -17.152344 L 2.332031 -17.152344 L 2.332031 0 L 8.167969 0 L 8.167969 -8.554688 C 8.167969 -10.890625 9.605469 -12.835938 11.433594 -12.835938 C 13.261719 -12.835938 14.039062 -11.746094 14.039062 -9.722656 L 14.039062 0 L 19.875 0 Z M 19.875 -9.722656"/></g><g id="A"><path d="M 15.75 -8.554688 C 15.75 -6.300781 14 -4.277344 11.667969 -4.277344 C 9.332031 -4.277344 7.582031 -6.300781 7.582031 -8.554688 C 7.582031 -10.8125 9.332031 -12.835938 11.667969 -12.835938 C 14 -12.835938 15.75 -10.8125 15.75 -8.554688 Z M 21.585938 -29.167969 L 15.75 -29.167969 L 15.75 -15.050781 C 14.234375 -16.917969 12.054688 -17.539062 9.878906 -17.539062 C 5.015625 -17.539062 1.359375 -13.300781 1.359375 -8.554688 C 1.359375 -3.8125 5.015625 0.390625 9.878906 0.390625 C 12.054688 0.390625 14.585938 -0.3125 15.75 -2.0625 L 15.75 0 L 21.585938 0 Z M 21.585938 -29.167969"/></g><g id="C"><path d="M 8.089844 -5.367188 L 8.089844 -21.039062 L 9.839844 -21.039062 C 14.351562 -21.039062 17.382812 -17.617188 17.382812 -13.222656 C 17.382812 -8.828125 14.3125 -5.367188 9.839844 -5.367188 Z M 2.332031 -26.445312 L 2.332031 0 L 10.191406 0 C 17.695312 0 23.335938 -5.757812 23.335938 -13.222656 C 23.335938 -20.691406 17.65625 -26.445312 10.191406 -26.445312 Z M 2.332031 -26.445312"/></g><g id="D"><path d="M 7.621094 -10.617188 C 7.621094 -10.617188 7.816406 -13.804688 11.472656 -13.804688 C 15.011719 -13.804688 15.285156 -10.617188 15.285156 -10.617188 Z M 20.882812 -8.945312 C 20.882812 -14.429688 16.566406 -17.539062 11.355469 -17.539062 C 5.601562 -17.539062 1.359375 -13.921875 1.359375 -8.554688 C 1.359375 -3.109375 5.445312 0.390625 11.355469 0.390625 C 15.90625 0.390625 19.5625 -1.867188 20.574219 -6.378906 L 14.625 -6.378906 C 14.585938 -5.132812 13.300781 -3.773438 11.238281 -3.773438 C 8.945312 -3.773438 7.542969 -5.871094 7.542969 -7.855469 L 20.847656 -7.855469 C 20.847656 -8.207031 20.882812 -8.59375 20.882812 -8.945312 Z M 20.882812 -8.945312"/></g><g id="E"><path d="M 19.5625 -17.152344 L 13.652344 -17.152344 L 9.566406 -4.898438 L 5.484375 -17.152344 L -0.390625 -17.152344 L 6.144531 0 L 13.027344 0 Z M 19.5625 -17.152344"/></g><g id="F"><path d="M 8.167969 0 L 8.167969 -29.167969 L 2.332031 -29.167969 L 2.332031 0 Z M 8.167969 0"/></g><g id="G"><path d="M 11.160156 -4.042969 C 8.011719 -4.042969 7.15625 -6.339844 7.15625 -8.515625 C 7.15625 -10.65625 8.089844 -12.949219 11.160156 -12.949219 C 14.195312 -12.949219 15.128906 -10.65625 15.128906 -8.515625 C 15.128906 -6.339844 14.273438 -4.042969 11.160156 -4.042969 Z M 11.160156 -17.5 C 5.792969 -17.5 1.359375 -13.921875 1.359375 -8.554688 C 1.359375 -3.074219 5.679688 0.351562 11.160156 0.351562 C 16.605469 0.351562 20.921875 -3.074219 20.921875 -8.554688 C 20.921875 -13.921875 16.488281 -17.5 11.160156 -17.5 Z M 11.160156 -17.5"/></g><g id="H"><path d="M 8.167969 -8.554688 C 8.167969 -10.8125 9.917969 -12.835938 12.25 -12.835938 C 14.585938 -12.835938 16.335938 -10.8125 16.335938 -8.554688 C 16.335938 -6.300781 14.585938 -4.277344 12.25 -4.277344 C 9.917969 -4.277344 8.167969 -6.300781 8.167969 -8.554688 Z M 8.167969 9.722656 L 8.167969 -2.0625 C 9.332031 -0.3125 11.824219 0.390625 14.039062 0.390625 C 18.902344 0.390625 22.558594 -3.8125 22.558594 -8.554688 C 22.558594 -13.300781 18.902344 -17.539062 14.039062 -17.539062 C 11.824219 -17.539062 9.683594 -16.917969 8.167969 -15.050781 L 8.167969 -17.152344 L 2.332031 -17.152344 L 2.332031 9.722656 Z M 8.167969 9.722656"/></g><g id="I"><path d="M 12.015625 -12.835938 C 12.910156 -12.835938 13.765625 -12.5625 14.351562 -11.863281 L 14.429688 -11.863281 L 14.429688 -17.152344 C 13.960938 -17.382812 13.183594 -17.539062 12.679688 -17.539062 C 10.539062 -17.539062 9.0625 -16.335938 8.167969 -15.050781 L 8.167969 -17.152344 L 2.332031 -17.152344 L 2.332031 0 L 8.167969 0 L 8.167969 -8.554688 C 8.167969 -10.617188 9.839844 -12.835938 12.015625 -12.835938 Z M 12.015625 -12.835938"/></g><g id="J"><path d="M 5.09375 8.710938 C 9.0625 8.710938 9.957031 5.210938 9.957031 1.90625 L 9.957031 -6.339844 C 9.957031 -7.3125 11.160156 -7.699219 11.941406 -7.894531 L 11.941406 -12.910156 C 10.421875 -13.300781 9.957031 -13.652344 9.957031 -15.207031 L 9.957031 -22.671875 C 9.957031 -26.019531 9.023438 -29.246094 5.054688 -29.246094 C 3.96875 -29.246094 2.878906 -29.167969 1.789062 -29.128906 L 1.789062 -23.566406 C 3.773438 -23.566406 4.433594 -23.800781 4.433594 -21.664062 L 4.433594 -14.933594 C 4.433594 -13.183594 5.757812 -11.550781 7.039062 -10.226562 C 6.066406 -9.21875 4.433594 -7.933594 4.433594 -6.535156 L 4.433594 1.011719 C 4.433594 1.4375 4.511719 2.761719 4.042969 2.957031 C 3.851562 3.035156 3.617188 3.035156 3.421875 3.035156 C 2.878906 3.035156 2.332031 2.996094 1.789062 2.957031 L 1.789062 8.671875 C 2.917969 8.632812 4.003906 8.710938 5.09375 8.710938 Z M 5.09375 8.710938"/></g></defs><g fill="#FFDE59"><use x="10.741" y="155.474" xmlns:xlink="http://www.w3.org/1999/xlink" xlink:href="#a" xlink:type="simple" xlink:actuate="onLoad" xlink:show="embed"/></g><g fill="#FF66C4"><use x="51.799" y="155.474" xmlns:xlink="http://www.w3.org/1999/xlink" xlink:href="#b" xlink:type="simple" xlink:actuate="onLoad" xlink:show="embed"/></g><g fill="#FF66C4"><use x="102.382" y="155.474" xmlns:xlink="http://www.w3.org/1999/xlink" xlink:href="#c" xlink:type="simple" xlink:actuate="onLoad" xlink:show="embed"/></g><g fill="#FF66C4"><use x="146.623" y="155.474" xmlns:xlink="http://www.w3.org/1999/xlink" xlink:href="#d" xlink:type="simple" xlink:actuate="onLoad" xlink:show="embed"/></g><g fill="#FF66C4"><use x="167.506" y="155.474" xmlns:xlink="http://www.w3.org/1999/xlink" xlink:href="#d" xlink:type="simple" xlink:actuate="onLoad" xlink:show="embed"/></g><g fill="#FF66C4"><use x="188.389" y="155.474" xmlns:xlink="http://www.w3.org/1999/xlink" xlink:href="#e" xlink:type="simple" xlink:actuate="onLoad" xlink:show="embed"/></g><g fill="#38B6FF"><use x="232.697" y="155.474" xmlns:xlink="http://www.w3.org/1999/xlink" xlink:href="#f" xlink:type="simple" xlink:actuate="onLoad" xlink:show="embed"/></g><g fill="#38B6FF"><use x="251.724" y="155.474" xmlns:xlink="http://www.w3.org/1999/xlink" xlink:href="#g" xlink:type="simple" xlink:actuate="onLoad" xlink:show="embed"/></g><g fill="#38B6FF"><use x="271.06" y="155.474" xmlns:xlink="http://www.w3.org/1999/xlink" xlink:href="#h" xlink:type="simple" xlink:actuate="onLoad" xlink:show="embed"/></g><g fill="#38B6FF"><use x="291.943" y="155.474" xmlns:xlink="http://www.w3.org/1999/xlink" xlink:href="#i" xlink:type="simple" xlink:actuate="onLoad" xlink:show="embed"/></g><g fill="#38B6FF"><use x="303.777" y="155.474" xmlns:xlink="http://www.w3.org/1999/xlink" xlink:href="#j" xlink:type="simple" xlink:actuate="onLoad" xlink:show="embed"/></g><g><use x="369.122" y="155.474" xmlns:xlink="http://www.w3.org/1999/xlink" xlink:href="#g" xlink:type="simple" xlink:actuate="onLoad" xlink:show="embed"/></g><g fill="#7ED957"><use x="388.452" y="155.474" xmlns:xlink="http://www.w3.org/1999/xlink" xlink:href="#k" xlink:type="simple" xlink:actuate="onLoad" xlink:show="embed"/></g><g fill="#7ED957"><use x="430.063" y="155.474" xmlns:xlink="http://www.w3.org/1999/xlink" xlink:href="#l" xlink:type="simple" xlink:actuate="onLoad" xlink:show="embed"/></g><g fill="#7ED957"><use x="477.63" y="155.474" xmlns:xlink="http://www.w3.org/1999/xlink" xlink:href="#m" xlink:type="simple" xlink:actuate="onLoad" xlink:show="embed"/></g><g fill="#7ED957"><use x="521.02" y="155.474" xmlns:xlink="http://www.w3.org/1999/xlink" xlink:href="#d" xlink:type="simple" xlink:actuate="onLoad" xlink:show="embed"/></g><g fill="#7ED957"><use x="541.903" y="155.474" xmlns:xlink="http://www.w3.org/1999/xlink" xlink:href="#e" xlink:type="simple" xlink:actuate="onLoad" xlink:show="embed"/></g><g fill="#7ED957"><use x="586.222" y="155.474" xmlns:xlink="http://www.w3.org/1999/xlink" xlink:href="#g" xlink:type="simple" xlink:actuate="onLoad" xlink:show="embed"/></g><g fill="#7ED957"><use x="605.558" y="155.474" xmlns:xlink="http://www.w3.org/1999/xlink" xlink:href="#k" xlink:type="simple" xlink:actuate="onLoad" xlink:show="embed"/></g><g fill="#7ED957"><use x="647.169" y="155.474" xmlns:xlink="http://www.w3.org/1999/xlink" xlink:href="#c" xlink:type="simple" xlink:actuate="onLoad" xlink:show="embed"/></g><g fill="#7ED957"><use x="691.41" y="155.474" xmlns:xlink="http://www.w3.org/1999/xlink" xlink:href="#n" xlink:type="simple" xlink:actuate="onLoad" xlink:show="embed"/></g><g fill="#7ED957"><use x="713.067" y="155.474" xmlns:xlink="http://www.w3.org/1999/xlink" xlink:href="#o" xlink:type="simple" xlink:actuate="onLoad" xlink:show="embed"/></g><g fill="#7ED957"><use x="752.512" y="155.474" xmlns:xlink="http://www.w3.org/1999/xlink" xlink:href="#e" xlink:type="simple" xlink:actuate="onLoad" xlink:show="embed"/></g><g fill="#7ED957"><use x="796.831" y="155.474" xmlns:xlink="http://www.w3.org/1999/xlink" xlink:href="#p" xlink:type="simple" xlink:actuate="onLoad" xlink:show="embed"/></g><g fill="#7ED957"><use x="823.824" y="155.474" xmlns:xlink="http://www.w3.org/1999/xlink" xlink:href="#e" xlink:type="simple" xlink:actuate="onLoad" xlink:show="embed"/></g><g fill="#FF914D"><use x="868.13" y="155.474" xmlns:xlink="http://www.w3.org/1999/xlink" xlink:href="#q" xlink:type="simple" xlink:actuate="onLoad" xlink:show="embed"/></g><g fill="#FFDE59"><use x="908.183" y="155.474" xmlns:xlink="http://www.w3.org/1999/xlink" xlink:href="#r" xlink:type="simple" xlink:actuate="onLoad" xlink:show="embed"/></g><g fill="#FFDE59"><use x="563.232" y="217.743" xmlns:xlink="http://www.w3.org/1999/xlink" xlink:href="#s" xlink:type="simple" xlink:actuate="onLoad" xlink:show="embed"/></g><g fill="#8C52FF"><use x="577.612" y="217.743" xmlns:xlink="http://www.w3.org/1999/xlink" xlink:href="#t" xlink:type="simple" xlink:actuate="onLoad" xlink:show="embed"/></g><g fill="#8C52FF"><use x="599.036" y="217.743" xmlns:xlink="http://www.w3.org/1999/xlink" xlink:href="#u" xlink:type="simple" xlink:actuate="onLoad" xlink:show="embed"/></g><g fill="#8C52FF"><use x="622.949" y="217.743" xmlns:xlink="http://www.w3.org/1999/xlink" xlink:href="#v" xlink:type="simple" xlink:actuate="onLoad" xlink:show="embed"/></g><g fill="#8C52FF"><use x="644.412" y="217.743" xmlns:xlink="http://www.w3.org/1999/xlink" xlink:href="#w" xlink:type="simple" xlink:actuate="onLoad" xlink:show="embed"/></g><g fill="#8C52FF"><use x="664.904" y="217.743" xmlns:xlink="http://www.w3.org/1999/xlink" xlink:href="#x" xlink:type="simple" xlink:actuate="onLoad" xlink:show="embed"/></g><g fill="#8C52FF"><use x="678.124" y="217.743" xmlns:xlink="http://www.w3.org/1999/xlink" xlink:href="#y" xlink:type="simple" xlink:actuate="onLoad" xlink:show="embed"/></g><g fill="#8C52FF"><use x="698.11" y="217.743" xmlns:xlink="http://www.w3.org/1999/xlink" xlink:href="#z" xlink:type="simple" xlink:actuate="onLoad" xlink:show="embed"/></g><g fill="#8C52FF"><use x="719.729" y="217.743" xmlns:xlink="http://www.w3.org/1999/xlink" xlink:href="#A" xlink:type="simple" xlink:actuate="onLoad" xlink:show="embed"/></g><g fill="#38B6FF"><use x="743.641" y="217.743" xmlns:xlink="http://www.w3.org/1999/xlink" xlink:href="#B" xlink:type="simple" xlink:actuate="onLoad" xlink:show="embed"/></g><g fill="#38B6FF"><use x="753.362" y="217.743" xmlns:xlink="http://www.w3.org/1999/xlink" xlink:href="#C" xlink:type="simple" xlink:actuate="onLoad" xlink:show="embed"/></g><g fill="#38B6FF"><use x="778.053" y="217.743" xmlns:xlink="http://www.w3.org/1999/xlink" xlink:href="#D" xlink:type="simple" xlink:actuate="onLoad" xlink:show="embed"/></g><g fill="#38B6FF"><use x="800.294" y="217.743" xmlns:xlink="http://www.w3.org/1999/xlink" xlink:href="#E" xlink:type="simple" xlink:actuate="onLoad" xlink:show="embed"/></g><g fill="#38B6FF"><use x="819.463" y="217.743" xmlns:xlink="http://www.w3.org/1999/xlink" xlink:href="#D" xlink:type="simple" xlink:actuate="onLoad" xlink:show="embed"/></g><g fill="#38B6FF"><use x="841.704" y="217.743" xmlns:xlink="http://www.w3.org/1999/xlink" xlink:href="#F" xlink:type="simple" xlink:actuate="onLoad" xlink:show="embed"/></g><g fill="#38B6FF"><use x="852.202" y="217.743" xmlns:xlink="http://www.w3.org/1999/xlink" xlink:href="#G" xlink:type="simple" xlink:actuate="onLoad" xlink:show="embed"/></g><g fill="#38B6FF"><use x="874.482" y="217.743" xmlns:xlink="http://www.w3.org/1999/xlink" xlink:href="#H" xlink:type="simple" xlink:actuate="onLoad" xlink:show="embed"/></g><g fill="#38B6FF"><use x="898.395" y="217.743" xmlns:xlink="http://www.w3.org/1999/xlink" xlink:href="#D" xlink:type="simple" xlink:actuate="onLoad" xlink:show="embed"/></g><g fill="#38B6FF"><use x="920.636" y="217.743" xmlns:xlink="http://www.w3.org/1999/xlink" xlink:href="#I" xlink:type="simple" xlink:actuate="onLoad" xlink:show="embed"/></g><g fill="#FFDE59"><use x="935.449" y="217.743" xmlns:xlink="http://www.w3.org/1999/xlink" xlink:href="#J" xlink:type="simple" xlink:actuate="onLoad" xlink:show="embed"/></g></svg>